<svg xmlns="http://www.w3.org/2000/svg" version="1.1" xmlns:xlink="http://www.w3.org/1999/xlink" xmlns:svgjs="http://svgjs.dev/svgjs" viewBox="0 0 12.016892725743787 8.94192723493677"><g transform="matrix(1,0,0,1,0.8619467290828311,6.11606800585394)"><rect width="12.016892725743787" height="12.016892725743787" x="-0.8619467290828311" y="-7.653550751257448" fill="#ffffff"></rect><g><path d=" M 1.1355 0.6000000000000001 L 0.8385 0.6000000000000001 L 0.8385 0.6615 L 1.0065 0.6615 L 1.0065 0.933 Q 0.9390000000000001 0.9765 0.8685 0.9975 Q 0.798 1.0185 0.708 1.0185 Q 0.5895 1.0185 0.501 0.9825 Q 0.41250000000000003 0.9465000000000001 0.354 0.88275 Q 0.2955 0.8190000000000001 0.26625 0.7312500000000001 Q 0.23700000000000002 0.6435000000000001 0.23700000000000002 0.5385000000000001 Q 0.23700000000000002 0.43500000000000005 0.26475 0.3480000000000001 Q 0.2925 0.261 0.34800000000000003 0.19800000000000006 Q 0.4035 0.135 0.48375 0.10050000000000003 Q 0.5640000000000001 0.06600000000000006 0.6705 0.06600000000000006 Q 0.741 0.06600000000000006 0.8025 0.08100000000000007 Q 0.864 0.09600000000000009 0.912 0.12 Q 0.96 0.14400000000000002 0.99075 0.17475000000000007 Q 1.0215 0.20550000000000002 1.0305 0.237 L 1.1385 0.237 Q 1.125 0.20400000000000007 1.09275 0.16275000000000006 Q 1.0605 0.12150000000000005 1.0050000000000001 0.08550000000000002 Q 0.9495 0.0495000000000001 0.86775 0.02475000000000005 Q 0.786 0 0.675 0 Q 0.5475 0 0.44025000000000003 0.03600000000000003 Q 0.333 0.07200000000000006 0.255 0.13950000000000007 Q 0.177 0.20700000000000007 0.1335 0.30525 Q 0.09 0.4035000000000001 0.09 0.528 Q 0.09 0.6345000000000001 0.12375 0.7342500000000001 Q 0.1575 0.8340000000000001 0.22725 0.9127500000000001 Q 0.297 0.9915 0.405 1.03875 Q 0.513 1.086 0.663 1.086 Q 0.7755 1.086 0.8625 1.06125 Q 0.9495 1.0365 1.0065 1.0065 L 1.0065 1.068 L 1.1355 1.068 L 1.1355 0.6000000000000001 M 1.40552490234375 1.068 L 1.40552490234375 0.018000000000000016 L 1.54202490234375 0.018000000000000016 L 1.54202490234375 0.9855 L 2.08352490234375 0.9855 L 2.08352490234375 1.068 L 1.40552490234375 1.068 M 2.203509521484375 0.543 Q 2.203509521484375 0.627 2.235759521484375 0.7222500000000001 Q 2.268009521484375 0.8175000000000001 2.337009521484375 0.8985000000000001 Q 2.406009521484375 0.9795 2.512509521484375 1.03275 Q 2.619009521484375 1.086 2.7675095214843752 1.086 Q 2.868009521484375 1.086 2.949759521484375 1.06125 Q 3.031509521484375 1.0365 3.0967595214843753 0.9945 Q 3.162009521484375 0.9525 3.210009521484375 0.89775 Q 3.258009521484375 0.8430000000000001 3.288759521484375 0.7822500000000001 Q 3.319509521484375 0.7215 3.335259521484375 0.66 Q 3.351009521484375 0.5985 3.351009521484375 0.543 Q 3.351009521484375 0.4590000000000001 3.3165095214843747 0.36375 Q 3.282009521484375 0.26850000000000007 3.210009521484375 0.1875 Q 3.138009521484375 0.10650000000000004 3.027759521484375 0.05325000000000002 Q 2.917509521484375 0 2.7675095214843752 0 Q 2.619009521484375 0 2.512509521484375 0.05249999999999999 Q 2.406009521484375 0.1050000000000001 2.337009521484375 0.18525000000000003 Q 2.268009521484375 0.26550000000000007 2.235759521484375 0.36150000000000004 Q 2.203509521484375 0.4575 2.203509521484375 0.543 M 2.350509521484375 0.543 Q 2.350509521484375 0.43800000000000006 2.382759521484375 0.35025000000000006 Q 2.415009521484375 0.26250000000000007 2.471259521484375 0.1995 Q 2.527509521484375 0.13650000000000007 2.6040095214843753 0.10125000000000006 Q 2.680509521484375 0.06600000000000006 2.770509521484375 0.06600000000000006 Q 2.859009521484375 0.06600000000000006 2.937759521484375 0.10125000000000006 Q 3.016509521484375 0.13650000000000007 3.075759521484375 0.1995 Q 3.135009521484375 0.26250000000000007 3.169509521484375 0.35025000000000006 Q 3.204009521484375 0.43800000000000006 3.204009521484375 0.543 Q 3.204009521484375 0.6480000000000001 3.169509521484375 0.7357500000000001 Q 3.135009521484375 0.8235000000000001 3.075759521484375 0.8865000000000001 Q 3.016509521484375 0.9495 2.937759521484375 0.98475 Q 2.859009521484375 1.02 2.770509521484375 1.02 Q 2.680509521484375 1.02 2.6040095214843753 0.98475 Q 2.527509521484375 0.9495 2.471259521484375 0.8865000000000001 Q 2.415009521484375 0.8235000000000001 2.382759521484375 0.7357500000000001 Q 2.350509521484375 0.6480000000000001 2.350509521484375 0.543 M 3.605994873046875 1.068 L 3.9824948730468748 1.068 Q 4.082994873046875 1.068 4.151994873046875 1.04175 Q 4.220994873046875 1.0155 4.262994873046875 0.9735 Q 4.304994873046875 0.9315 4.323744873046875 0.8782500000000001 Q 4.342494873046875 0.8250000000000001 4.342494873046875 0.7710000000000001 Q 4.342494873046875 0.6855 4.305744873046875 0.6345000000000001 Q 4.268994873046875 0.5835000000000001 4.217994873046875 0.5565 Q 4.166994873046875 0.5295000000000001 4.112994873046875 0.5205000000000001 Q 4.058994873046875 0.5115000000000001 4.025994873046875 0.51 L 4.025994873046875 0.504 Q 4.078494873046875 0.504 4.124994873046875 0.48375 Q 4.171494873046875 0.4635 4.206744873046875 0.43125 Q 4.241994873046875 0.399 4.262994873046875 0.35625000000000007 Q 4.283994873046875 0.3135 4.283994873046875 0.26550000000000007 Q 4.283994873046875 0.22350000000000003 4.265994873046875 0.18000000000000005 Q 4.247994873046875 0.13650000000000007 4.211244873046875 0.10050000000000003 Q 4.174494873046875 0.0645 4.1167448730468745 0.04125000000000001 Q 4.058994873046875 0.018000000000000016 3.980994873046875 0.018000000000000016 L 3.605994873046875 0.018000000000000016 L 3.605994873046875 1.068 M 3.742494873046875 1.002 L 3.742494873046875 0.543 L 3.907494873046875 0.543 Q 3.980994873046875 0.543 4.034994873046875 0.5625 Q 4.088994873046875 0.5820000000000001 4.124244873046875 0.615 Q 4.159494873046875 0.6480000000000001 4.176744873046875 0.6915 Q 4.193994873046875 0.7350000000000001 4.193994873046875 0.783 Q 4.193994873046875 0.8355 4.175244873046875 0.8760000000000001 Q 4.156494873046875 0.9165000000000001 4.124994873046875 0.9450000000000001 Q 4.093494873046875 0.9735 4.050744873046875 0.98775 Q 4.007994873046875 1.002 3.959994873046875 1.002 L 3.742494873046875 1.002 M 3.742494873046875 0.4770000000000001 L 3.742494873046875 0.08400000000000007 L 3.925494873046875 0.08400000000000007 Q 3.983994873046875 0.08400000000000007 4.025244873046875 0.10050000000000003 Q 4.066494873046875 0.11699999999999999 4.092744873046875 0.14400000000000002 Q 4.118994873046875 0.17100000000000004 4.130994873046875 0.20550000000000002 Q 4.142994873046875 0.24 4.142994873046875 0.2745000000000001 Q 4.142994873046875 0.31800000000000006 4.125744873046875 0.35550000000000004 Q 4.108494873046875 0.393 4.077744873046875 0.42000000000000004 Q 4.046994873046875 0.44700000000000006 4.007244873046875 0.4620000000000001 Q 3.967494873046875 0.4770000000000001 3.922494873046875 0.4770000000000001 L 3.742494873046875 0.4770000000000001 M 4.597510986328125 0.018000000000000016 L 4.597510986328125 1.068 L 5.275510986328125 1.068 L 5.275510986328125 0.9855 L 4.734010986328125 0.9855 L 4.734010986328125 0.546 L 5.199010986328125 0.546 L 5.199010986328125 0.4770000000000001 L 4.734010986328125 0.4770000000000001 L 4.734010986328125 0.10050000000000003 L 5.275510986328125 0.10050000000000003 L 5.275510986328125 0.018000000000000016 L 4.597510986328125 0.018000000000000016 M 6.45599560546875 0.6000000000000001 L 6.15899560546875 0.6000000000000001 L 6.15899560546875 0.6615 L 6.32699560546875 0.6615 L 6.32699560546875 0.933 Q 6.25949560546875 0.9765 6.18899560546875 0.9975 Q 6.11849560546875 1.0185 6.02849560546875 1.0185 Q 5.90999560546875 1.0185 5.82149560546875 0.9825 Q 5.73299560546875 0.9465000000000001 5.67449560546875 0.88275 Q 5.61599560546875 0.8190000000000001 5.58674560546875 0.7312500000000001 Q 5.55749560546875 0.6435000000000001 5.55749560546875 0.5385000000000001 Q 5.55749560546875 0.43500000000000005 5.58524560546875 0.3480000000000001 Q 5.61299560546875 0.261 5.66849560546875 0.19800000000000006 Q 5.72399560546875 0.135 5.80424560546875 0.10050000000000003 Q 5.88449560546875 0.06600000000000006 5.99099560546875 0.06600000000000006 Q 6.06149560546875 0.06600000000000006 6.12299560546875 0.08100000000000007 Q 6.18449560546875 0.09600000000000009 6.23249560546875 0.12 Q 6.28049560546875 0.14400000000000002 6.31124560546875 0.17475000000000007 Q 6.34199560546875 0.20550000000000002 6.35099560546875 0.237 L 6.4589956054687505 0.237 Q 6.44549560546875 0.20400000000000007 6.4132456054687506 0.16275000000000006 Q 6.38099560546875 0.12150000000000005 6.32549560546875 0.08550000000000002 Q 6.2699956054687505 0.0495000000000001 6.18824560546875 0.02475000000000005 Q 6.10649560546875 0 5.99549560546875 0 Q 5.86799560546875 0 5.76074560546875 0.03600000000000003 Q 5.65349560546875 0.07200000000000006 5.57549560546875 0.13950000000000007 Q 5.49749560546875 0.20700000000000007 5.45399560546875 0.30525 Q 5.41049560546875 0.4035000000000001 5.41049560546875 0.528 Q 5.41049560546875 0.6345000000000001 5.44424560546875 0.7342500000000001 Q 5.47799560546875 0.8340000000000001 5.54774560546875 0.9127500000000001 Q 5.61749560546875 0.9915 5.72549560546875 1.03875 Q 5.83349560546875 1.086 5.98349560546875 1.086 Q 6.09599560546875 1.086 6.18299560546875 1.06125 Q 6.2699956054687505 1.0365 6.32699560546875 1.0065 L 6.32699560546875 1.068 L 6.45599560546875 1.068 L 6.45599560546875 0.6000000000000001 M 6.6660205078125 0.018000000000000016 L 6.6660205078125 0.663 Q 6.6660205078125 0.7245 6.6780205078125 0.7987500000000001 Q 6.6900205078125 0.873 6.7350205078125 0.9367500000000001 Q 6.7800205078125 1.0005000000000002 6.8685205078125 1.04325 Q 6.9570205078125 1.086 7.1100205078125 1.086 Q 7.2060205078125 1.086 7.2802705078125 1.056 Q 7.3545205078125 1.026 7.4047705078125 0.9735 Q 7.4550205078125 0.921 7.4805205078125 0.8512500000000001 Q 7.5060205078125 0.7815000000000001 7.5060205078125 0.7020000000000001 L 7.5060205078125 0.018000000000000016 L 7.4400205078125 0.018000000000000016 L 7.4400205078125 0.6525000000000001 Q 7.4400205078125 0.6855 7.4385205078125 0.7192500000000001 Q 7.4370205078125 0.7530000000000001 7.4295205078125 0.7867500000000001 Q 7.4220205078125 0.8205 7.4062705078125 0.8535 Q 7.3905205078125 0.8865000000000001 7.3605205078125 0.9195000000000001 Q 7.3065205078125 0.9780000000000001 7.2390205078125 0.9990000000000001 Q 7.1715205078125 1.02 7.0980205078125 1.02 Q 7.0350205078125 1.02 6.9862705078125 1.0005000000000002 Q 6.9375205078125 0.9810000000000001 6.8940205078125 0.9420000000000001 Q 6.8595205078125 0.912 6.8415205078125 0.8820000000000001 Q 6.8235205078125 0.8520000000000001 6.8145205078125 0.8227500000000001 Q 6.8055205078125 0.7935000000000001 6.8040205078125 0.7635000000000001 Q 6.8025205078125 0.7335 6.8025205078125 0.7035 L 6.8025205078125 0.018000000000000016 L 6.6660205078125 0.018000000000000016 M 7.8659765625 0.018000000000000016 L 7.8659765625 1.068 L 8.0024765625 1.068 L 8.0024765625 0.018000000000000016 L 7.8659765625 0.018000000000000016 M 8.43749267578125 1.068 L 8.43749267578125 0.018000000000000016 L 8.78249267578125 0.018000000000000016 Q 8.90699267578125 0.018000000000000016 9.01049267578125 0.05774999999999997 Q 9.11399267578125 0.09750000000000003 9.18824267578125 0.16725 Q 9.26249267578125 0.237 9.30374267578125 0.3330000000000001 Q 9.34499267578125 0.42900000000000005 9.34499267578125 0.54 Q 9.34499267578125 0.6555 9.30224267578125 0.7522500000000001 Q 9.25949267578125 0.8490000000000001 9.18524267578125 0.9195000000000001 Q 9.110992675781251 0.9900000000000001 9.01199267578125 1.0290000000000001 Q 8.91299267578125 1.068 8.80049267578125 1.068 L 8.43749267578125 1.068 M 8.57399267578125 1.002 L 8.73899267578125 1.002 Q 8.86199267578125 1.002 8.94824267578125 0.9607500000000001 Q 9.03449267578125 0.9195000000000001 9.08999267578125 0.8535 Q 9.14549267578125 0.7875000000000001 9.17099267578125 0.7057500000000001 Q 9.19649267578125 0.6240000000000001 9.19649267578125 0.543 Q 9.19649267578125 0.45300000000000007 9.16649267578125 0.36975 Q 9.13649267578125 0.2865000000000001 9.07874267578125 0.22275 Q 9.02099267578125 0.15900000000000003 8.93549267578125 0.12150000000000005 Q 8.84999267578125 0.08400000000000007 8.73899267578125 0.08400000000000007 L 8.57399267578125 0.08400000000000007 L 8.57399267578125 1.002 M 9.5700146484375 0.018000000000000016 L 9.5700146484375 1.068 L 10.2480146484375 1.068 L 10.2480146484375 0.9855 L 9.7065146484375 0.9855 L 9.7065146484375 0.546 L 10.1715146484375 0.546 L 10.1715146484375 0.4770000000000001 L 9.7065146484375 0.4770000000000001 L 9.7065146484375 0.10050000000000003 L 10.2480146484375 0.10050000000000003 L 10.2480146484375 0.018000000000000016 L 9.5700146484375 0.018000000000000016" fill="#102036" fill-rule="nonzero"></path></g><g><path d=" M 0.47550000000000003 1.4344124999999996 L 0.27675 1.9586624999999998 L 0.21675 1.9586624999999998 L 0.018000000000000002 1.4344124999999996 L 0.075 1.4344124999999996 L 0.24675 1.9016624999999998 L 0.42 1.4344124999999996 L 0.47550000000000003 1.4344124999999996 M 0.6588724365234374 1.9297874999999998 Q 0.5996224365234374 1.8956624999999998 0.5654974365234374 1.8345374999999997 Q 0.5313724365234375 1.7734124999999998 0.5313724365234375 1.6961624999999998 Q 0.5313724365234375 1.6189124999999998 0.5654974365234374 1.5577874999999999 Q 0.5996224365234374 1.4966624999999998 0.6588724365234374 1.4625374999999998 Q 0.7181224365234374 1.4284124999999999 0.7908724365234374 1.4284124999999999 Q 0.8643724365234374 1.4284124999999999 0.9236224365234375 1.4625374999999998 Q 0.9828724365234374 1.4966624999999998 1.0166224365234373 1.5577874999999999 Q 1.0503724365234375 1.6189124999999998 1.0503724365234375 1.6961624999999998 Q 1.0503724365234375 1.7734124999999998 1.0166224365234373 1.8345374999999997 Q 0.9828724365234374 1.8956624999999998 0.9236224365234375 1.9297874999999998 Q 0.8643724365234374 1.9639124999999997 0.7908724365234374 1.9639124999999997 Q 0.7181224365234374 1.9639124999999997 0.6588724365234374 1.9297874999999998 M 0.8958724365234374 1.8911624999999996 Q 0.9423724365234374 1.8641624999999997 0.9693724365234375 1.8135374999999998 Q 0.9963724365234374 1.7629124999999997 0.9963724365234374 1.6961624999999998 Q 0.9963724365234374 1.6294124999999997 0.9693724365234375 1.5791624999999998 Q 0.9423724365234374 1.5289124999999997 0.8958724365234374 1.5019124999999998 Q 0.8493724365234374 1.4749124999999998 0.7908724365234374 1.4749124999999998 Q 0.7323724365234374 1.4749124999999998 0.6858724365234374 1.5019124999999998 Q 0.6393724365234374 1.5289124999999997 0.6123724365234374 1.5791624999999998 Q 0.5853724365234374 1.6294124999999997 0.5853724365234374 1.6961624999999998 Q 0.5853724365234374 1.7629124999999997 0.6123724365234374 1.8135374999999998 Q 0.6393724365234374 1.8641624999999997 0.6858724365234374 1.8911624999999996 Q 0.7323724365234374 1.9181624999999998 0.7908724365234374 1.9181624999999998 Q 0.8493724365234374 1.9181624999999998 0.8958724365234374 1.8911624999999996 M 1.49401611328125 1.4344124999999996 L 1.3260161132812498 1.7546624999999998 L 1.3260161132812498 1.9586624999999998 L 1.2735161132812498 1.9586624999999998 L 1.2735161132812498 1.7546624999999998 L 1.1040161132812498 1.4344124999999996 L 1.1632661132812498 1.4344124999999996 L 1.29976611328125 1.7066624999999997 L 1.43551611328125 1.4344124999999996 L 1.49401611328125 1.4344124999999996 M 1.8754105224609372 1.8341624999999997 L 1.6369105224609373 1.8341624999999997 L 1.591160522460937 1.9586624999999998 L 1.5356605224609372 1.9586624999999998 L 1.7269105224609371 1.4411625 L 1.7861605224609372 1.4411625 L 1.9766605224609373 1.9586624999999998 L 1.9211605224609372 1.9586624999999998 L 1.8754105224609372 1.8341624999999997 M 1.8596605224609373 1.7906624999999998 L 1.7561605224609371 1.5071624999999997 L 1.6526605224609372 1.7906624999999998 L 1.8596605224609373 1.7906624999999998 M 2.4742686767578124 1.5874124999999997 Q 2.4517686767578124 1.5356624999999997 2.405643676757812 1.5060374999999997 Q 2.359518676757812 1.4764124999999997 2.2972686767578123 1.4764124999999997 Q 2.2387686767578123 1.4764124999999997 2.1922686767578123 1.5034124999999998 Q 2.1457686767578124 1.5304124999999997 2.118768676757812 1.5802874999999998 Q 2.091768676757812 1.6301624999999997 2.091768676757812 1.6961624999999998 Q 2.091768676757812 1.7621624999999996 2.118768676757812 1.8124124999999998 Q 2.1457686767578124 1.8626624999999997 2.1922686767578123 1.8896624999999998 Q 2.2387686767578123 1.9166624999999997 2.2972686767578123 1.9166624999999997 Q 2.352018676757812 1.9166624999999997 2.395893676757812 1.8930374999999997 Q 2.4397686767578124 1.8694124999999997 2.466393676757812 1.8255374999999998 Q 2.493018676757812 1.7816624999999997 2.4967686767578123 1.7231624999999997 L 2.2762686767578124 1.7231624999999997 L 2.2762686767578124 1.6804124999999996 L 2.552268676757812 1.6804124999999996 L 2.552268676757812 1.7186624999999998 Q 2.548518676757812 1.7876624999999997 2.514768676757812 1.8435374999999998 Q 2.481018676757812 1.8994124999999997 2.4243936767578123 1.9316624999999998 Q 2.3677686767578123 1.9639124999999997 2.2972686767578123 1.9639124999999997 Q 2.2245186767578122 1.9639124999999997 2.165268676757812 1.9297874999999998 Q 2.106018676757812 1.8956624999999998 2.071893676757812 1.8345374999999997 Q 2.0377686767578123 1.7734124999999998 2.0377686767578123 1.6961624999999998 Q 2.0377686767578123 1.6189124999999998 2.071893676757812 1.5577874999999999 Q 2.106018676757812 1.4966624999999998 2.165268676757812 1.4625374999999998 Q 2.2245186767578122 1.4284124999999999 2.2972686767578123 1.4284124999999999 Q 2.3812686767578124 1.4284124999999999 2.444268676757812 1.4704124999999997 Q 2.5072686767578123 1.5124124999999997 2.5357686767578125 1.5874124999999997 L 2.4742686767578124 1.5874124999999997 M 2.7018804931640616 1.4771624999999997 L 2.7018804931640616 1.6729124999999998 L 2.900630493164062 1.6729124999999998 L 2.900630493164062 1.7164124999999997 L 2.7018804931640616 1.7164124999999997 L 2.7018804931640616 1.9151624999999997 L 2.923130493164062 1.9151624999999997 L 2.923130493164062 1.9586624999999998 L 2.649380493164062 1.9586624999999998 L 2.649380493164062 1.4336624999999996 L 2.923130493164062 1.4336624999999996 L 2.923130493164062 1.4771624999999997 L 2.7018804931640616 1.4771624999999997 M 3.3067485351562493 1.9586624999999998 L 3.1769985351562493 1.7396624999999997 L 3.080248535156249 1.7396624999999997 L 3.080248535156249 1.9586624999999998 L 3.0277485351562494 1.9586624999999998 L 3.0277485351562494 1.4344124999999996 L 3.185248535156249 1.4344124999999996 Q 3.2729985351562494 1.4344124999999996 3.3183735351562493 1.4764124999999997 Q 3.3637485351562493 1.5184124999999997 3.3637485351562493 1.5866624999999996 Q 3.3637485351562493 1.6436624999999998 3.3311235351562494 1.6837874999999998 Q 3.2984985351562495 1.7239124999999997 3.2347485351562493 1.7359124999999997 L 3.3697485351562495 1.9586624999999998 L 3.3067485351562493 1.9586624999999998 M 3.080248535156249 1.6969124999999998 L 3.185998535156249 1.6969124999999998 Q 3.2474985351562493 1.6969124999999998 3.2786235351562496 1.6669124999999998 Q 3.3097485351562494 1.6369124999999998 3.3097485351562494 1.5866624999999996 Q 3.3097485351562494 1.5349124999999997 3.279748535156249 1.5067874999999997 Q 3.2497485351562494 1.4786624999999998 3.185248535156249 1.4786624999999998 L 3.080248535156249 1.4786624999999998 L 3.080248535156249 1.6969124999999998 M 3.9592199707031246 1.4344124999999996 L 3.9592199707031246 1.4779124999999997 L 3.7282199707031243 1.4779124999999997 L 3.7282199707031243 1.6736624999999998 L 3.9232199707031246 1.6736624999999998 L 3.9232199707031246 1.7171624999999997 L 3.7282199707031243 1.7171624999999997 L 3.7282199707031243 1.9586624999999998 L 3.6757199707031245 1.9586624999999998 L 3.6757199707031245 1.4344124999999996 L 3.9592199707031246 1.4344124999999996 M 4.3503306884765625 1.8341624999999997 L 4.111830688476562 1.8341624999999997 L 4.066080688476562 1.9586624999999998 L 4.010580688476562 1.9586624999999998 L 4.201830688476562 1.4411625 L 4.261080688476562 1.4411625 L 4.451580688476562 1.9586624999999998 L 4.396080688476562 1.9586624999999998 L 4.3503306884765625 1.8341624999999997 M 4.334580688476562 1.7906624999999998 L 4.231080688476562 1.5071624999999997 L 4.127580688476562 1.7906624999999998 L 4.334580688476562 1.7906624999999998 M 4.546438842773437 1.5577874999999999 Q 4.580188842773437 1.4966624999999998 4.638688842773437 1.4625374999999998 Q 4.697188842773437 1.4284124999999999 4.769188842773437 1.4284124999999999 Q 4.856938842773437 1.4284124999999999 4.919563842773437 1.4700374999999997 Q 4.9821888427734375 1.5116624999999997 5.010688842773437 1.5874124999999997 L 4.949188842773437 1.5874124999999997 Q 4.926688842773437 1.5341624999999999 4.880563842773437 1.5041624999999996 Q 4.834438842773437 1.4741624999999998 4.769188842773437 1.4741624999999998 Q 4.711438842773437 1.4741624999999998 4.665313842773437 1.5011624999999997 Q 4.619188842773437 1.5281624999999996 4.592938842773437 1.5787874999999998 Q 4.566688842773437 1.6294124999999997 4.566688842773437 1.6961624999999998 Q 4.566688842773437 1.7629124999999997 4.592938842773437 1.8131624999999998 Q 4.619188842773437 1.8634124999999997 4.665313842773437 1.8904124999999998 Q 4.711438842773437 1.9174124999999997 4.769188842773437 1.9174124999999997 Q 4.834438842773437 1.9174124999999997 4.880563842773437 1.8877874999999997 Q 4.926688842773437 1.8581624999999997 4.949188842773437 1.8056624999999997 L 5.010688842773437 1.8056624999999997 Q 4.9821888427734375 1.8806624999999997 4.919188842773437 1.9219124999999997 Q 4.856188842773437 1.9631624999999997 4.769188842773437 1.9631624999999997 Q 4.697188842773437 1.9631624999999997 4.638688842773437 1.9290374999999997 Q 4.580188842773437 1.8949124999999998 4.546438842773437 1.8341624999999997 Q 4.512688842773437 1.7734124999999998 4.512688842773437 1.6961624999999998 Q 4.512688842773437 1.6189124999999998 4.546438842773437 1.5577874999999999 M 5.168560913085937 1.4344124999999996 L 5.168560913085937 1.9586624999999998 L 5.116060913085937 1.9586624999999998 L 5.116060913085937 1.4344124999999996 L 5.168560913085937 1.4344124999999996 M 5.341438842773437 1.9159124999999997 L 5.529688842773437 1.9159124999999997 L 5.529688842773437 1.9586624999999998 L 5.288938842773437 1.9586624999999998 L 5.288938842773437 1.4344124999999996 L 5.341438842773437 1.4344124999999996 L 5.341438842773437 1.9159124999999997 M 5.658329223632812 1.4771624999999997 L 5.658329223632812 1.6729124999999998 L 5.857079223632812 1.6729124999999998 L 5.857079223632812 1.7164124999999997 L 5.658329223632812 1.7164124999999997 L 5.658329223632812 1.9151624999999997 L 5.879579223632812 1.9151624999999997 L 5.879579223632812 1.9586624999999998 L 5.605829223632812 1.9586624999999998 L 5.605829223632812 1.4336624999999996 L 5.879579223632812 1.4336624999999996 L 5.879579223632812 1.4771624999999997 L 5.658329223632812 1.4771624999999997" fill="#3682ae" fill-rule="nonzero"></path></g><g clip-path="url(#SvgjsClipPath1099)"><g clip-path="url(#b8c66d7ce-4caf-42d9-aae6-c01734739e936aa12669-34a5-4e15-b661-d3bd9cb2ea2c)"><path d=" M 7.278231385228707 -1.2943445264275546 L 7.278231385228707 -4.087681129724248 L 6.452655174686765 -4.087681129724248 L 6.452655174686765 -1.5835343054742341 L 6.3105134918719035 -1.5835343054742341 L 6.3105134918719035 -5.254253072744886 L 4.908000786006296 -5.254253072744886 L 4.908000786006296 -2.4098320474010237 L 4.778846668118683 -2.4098320474010237 L 4.778846668118683 -4.362873199904897 L 3.559891546558153 -4.362873199904897 L 3.559170015173306 -0.3054136103562497 C 3.559170015173306 -0.3054136103562497 4.72155707616183 -1.07384453521831 7.278231385228707 -1.2943445264275546 M 5.268189253321921 -4.82191146694456 L 5.02027106948849 -4.82191146694456 L 5.02027106948849 -5.069685344501022 L 5.268189253321921 -5.069685344501022 Z M 5.268189253321921 -4.489862723637969 L 5.02027106948849 -4.489862723637969 L 5.02027106948849 -4.737780907471399 L 5.268189253321921 -4.737780907471399 Z M 5.268189253321921 -4.157958286608347 L 5.02027106948849 -4.157958286608347 L 5.02027106948849 -4.4057321641648075 L 5.268189253321921 -4.4057321641648075 Z" fill="#3682ae" transform="matrix(1,0,0,1,0,0)" fill-rule="nonzero"></path></g><g clip-path="url(#b8c66d7ce-4caf-42d9-aae6-c01734739e936aa12669-34a5-4e15-b661-d3bd9cb2ea2c)"><path d=" M 3.394805165705157 -4.00787975856017 L 3.394805165705157 -0.2970438462920253 M 0.014430627696939322 -0.28434489391871764 L 4.547668012413701 -2.1864459306523916 M 3.392351958996677 -3.95722825534391 C 3.392351958996677 -3.95722825534391 2.2985103795686177 -1.1670663901405431 0.04588939607626928 -0.2957450897993006 M 3.392351958996677 -3.632827744716697 C 3.392351958996677 -3.632827744716697 3.169831679909861 -2.149647830025194 1.2974577362318835 -0.8332859715103194 M 3.3929291841045544 -2.967575807887759 C 3.3929291841045544 -2.967575807887759 3.230873235067917 -1.9510823929152985 2.061703779061831 -1.150615474566031 M 3.392351958996677 -2.4277260257452298 C 3.392351958996677 -2.4277260257452298 3.288307133301739 -1.7893150564325997 2.8803532883092426 -1.4833857492574705" fill="none" transform="matrix(1,0,0,1,0,0)" fill-rule="nonzero" stroke-dasharray="none" stroke-miterlimit="4" stroke-linejoin="miter" stroke-linecap="butt" stroke-width="0.0746063451931803" stroke="#102036"></path></g><g clip-path="url(#b8c66d7ce-4caf-42d9-aae6-c01734739e936aa12669-34a5-4e15-b661-d3bd9cb2ea2c)"><path d=" M 5.837188903412269 -1.0159777181535796 C 5.837333209689239 -1.016266330707519 5.928246164179962 -1.2575464258003572 5.983082549428334 -1.4113769170497386 C 6.001553752880416 -1.4631828704817536 6.0155514617464485 -1.503588628033186 6.02233385676401 -1.5268219386252593 C 6.082509574260251 -1.7398180034320951 6.329561920431866 -2.526575825469269 6.318594643382191 -2.5330696079328923 C 6.332015127140345 -2.582855273487336 6.3480331238839485 -2.6345169206423806 6.3644840394584605 -2.6867557929053043 C 6.487721599990328 -2.7398605028300436 6.620194762248239 -2.7994589952184064 6.760316157185527 -2.8617993068691874 C 6.774602478605497 -2.868148783055841 6.789321718856376 -2.874209646688556 6.804185265384225 -2.88055912287521 L 6.830593314069625 -2.891382093647915 C 6.877348547807711 -2.911007747315753 6.927711438470032 -2.932509382584194 6.9782186354093225 -2.963102313301707 C 7.039693109398287 -3.0013434766985982 7.130028838781132 -3.0499746920372868 7.187607043291923 -3.1329508012946916 C 7.2128606417615675 -3.170759045860675 7.228445719674264 -3.215493991721189 7.225992512965784 -3.26340367567503 C 7.225126675303968 -3.2821634916810525 7.214592317085201 -3.3163640793228004 7.214592317085201 -3.3163640793228004 C 7.214592317085201 -3.3163640793228004 7.197708482679782 -3.3478228477021297 7.185153836583443 -3.3616762502911923 C 7.153167146257709 -3.395526393459812 7.111109819240011 -3.418149287776192 7.065235320421872 -3.426181156096514 C 6.965808295589953 -3.4434979093328426 6.867680027250761 -3.4136265100001766 6.797258564089693 -3.3965983693177875 C 6.744352507063874 -3.382436336883563 6.692591725966166 -3.3642983558092494 6.642417928901526 -3.342339209177292 L 6.616298492770065 -3.3312276258506484 C 6.601146333688278 -3.3250224559409642 6.586427093437399 -3.3188172860312797 6.571996465740459 -3.3131893412294735 C 6.429277557817722 -3.2573428120423147 6.293629657466485 -3.205103939779392 6.168949034164922 -3.1548853553940406 C 6.1203178188262335 -3.1801389538636857 5.297916346377618 -3.620850323728236 5.103968710130743 -3.7277812749625623 C 5.082899993693211 -3.7394700833970838 5.044225911465411 -3.7577969805721976 4.994584552187937 -3.781174597441241 C 4.86710827884542 -3.8402176858653805 4.7392013865742415 -3.8983265711093016 4.610874161726615 -3.9554965800201343 C 4.58081196891979 -3.9689868372680346 4.54540314439419 -3.958866501394379 4.52701060701568 -3.9315272064926 C 4.508618069637169 -3.904187911590821 4.512587572530142 -3.867575767440785 4.5364121228100895 -3.8448136655847467 C 4.536989347917967 -3.8443807467538385 5.143797242574298 -3.2658568823835097 5.373244222955645 -3.0631065632415018 C 5.4048872123592675 -2.994295644769144 5.43847598423311 -2.9263962792763207 5.473970004280278 -2.859490406437695 C 5.212487030411732 -2.745921366462758 4.946386255680157 -2.602769539709113 4.709868267727309 -2.46856470212757 C 4.559501127125193 -2.531915157717137 4.412453030893373 -2.5967086760763975 4.268146753923973 -2.6628009509283834 C 4.251009384370226 -2.670762499222856 4.231309425971171 -2.671129253767519 4.213887593783478 -2.663811094867169 L 4.203930460672589 -2.659770519112026 L 4.177089493156281 -2.648658935785382 C 4.159772739919952 -2.641443621936912 4.140435698806052 -2.632785245318748 4.120377126307306 -2.6206635180533184 C 4.102030728001101 -2.609367473531254 4.090142579865372 -2.5900266386375694 4.088348644344361 -2.568556362719435 C 4.086554708823349 -2.5470860868013 4.095068402085778 -2.526040588766921 4.111285830858233 -2.51185658521839 C 4.164967765890851 -2.4652456577572734 4.219082619754376 -2.4095434348470848 4.2734860861718404 -2.355139968429621 C 4.31677796926266 -2.3135797606624324 4.357328033091062 -2.2806779295134096 4.382870244114646 -2.2502293050728657 L 4.370459904295277 -2.241138009623793 C 4.354679730299333 -2.2287701342380632 4.341030655836406 -2.2139023924123737 4.330054146743846 -2.1971245951481264 C 4.317643806924477 -2.177498941480288 4.300759972519057 -2.129300644972508 4.310861411906915 -2.10476857788771 C 4.321107157571743 -2.080380817079881 4.367285166201951 -2.058446262980532 4.389796945409177 -2.053684155840542 C 4.412453030893373 -2.048633436146613 4.4328002159460596 -2.0494992738084292 4.449539744074509 -2.0513752554090314 L 4.464836209433266 -2.0535398495635726 C 4.468588172634471 -2.014144235950926 4.463393146663572 -1.9623382825189108 4.462383002724786 -1.9023068712996403 C 4.462815921555694 -1.8252473193979797 4.464258984325388 -1.7477548486654118 4.459785489739337 -1.6767561603964665 C 4.4585691217512045 -1.655288033381754 4.467561490297801 -1.6345061269467482 4.484042885738779 -1.620695854215171 C 4.5005242811797554 -1.6068855814835943 4.522559151960623 -1.6016688011717926 4.543483130381589 -1.6066233097893377 C 4.566283522142755 -1.6122512545911447 4.585909175810594 -1.6198994872705228 4.603225929046921 -1.627259107395962 C 4.612605837049933 -1.6311553768741356 4.621697132499005 -1.635195952629279 4.63006689656323 -1.6385149969995751 L 4.639879723397149 -1.642555572754718 C 4.657196476633477 -1.649915192880158 4.67090557294557 -1.664201514300129 4.677399355409193 -1.6818068800903956 C 4.732091434380596 -1.8308752641997867 4.7892367200604795 -1.980953792247964 4.849845356387627 -2.132475383065835 C 5.111761249087091 -2.2062158905971985 5.4008067218568 -2.2946756383794416 5.665464433818682 -2.400596445674982 L 5.666618884034437 -2.396411563642869 C 5.6892749695186335 -2.3257014879278626 5.712652586387676 -2.2544141871049783 5.739204941350046 -2.1857243992675444 C 5.721888188113717 -1.880228010923322 5.706158803924053 -1.0418085417311032 5.706158803924053 -1.0410870103462555 C 5.705563289197827 -1.008120260279357 5.7287628818281435 -0.9795013402367081 5.761139495449395 -0.9732630601706376 C 5.793497389090079 -0.9671514921839828 5.825569899985473 -0.98516565390132 5.837188903412269 -1.0159777181535796" fill="#102036" transform="matrix(1,0,0,1,0,0)" fill-rule="nonzero"></path></g></g></g><defs><clipPath id="SvgjsClipPath1099"><path d=" M 0 -5.254121276771109 h 7.278249580852659 v 5.004121276771109 h -7.278249580852659 Z"></path></clipPath><clipPath id="b8c66d7ce-4caf-42d9-aae6-c01734739e936aa12669-34a5-4e15-b661-d3bd9cb2ea2c"><path d=" M -0.14430627696940093 -5.398415043437318 L 7.422537662198107 -5.398415043437318 L 7.422537662198107 -0.10569372303059943 L -0.14430627696940093 -0.10569372303059943 Z"></path></clipPath></defs></svg>